<svg width="456" height="456" viewBox="0 0 456 456" fill="none" xmlns="http://www.w3.org/2000/svg">
<path d="M328.529 246.75L207.544 125.765C201.311 119.532 191.21 119.515 184.956 125.726L184.607 126.072C179.403 131.241 178.548 139.336 180.155 146.493C181.922 154.363 181.861 164.836 173.349 173.349C164.836 181.862 154.363 181.922 146.493 180.155C139.336 178.548 131.241 179.403 126.072 184.607L125.726 184.956C119.515 191.21 119.532 201.311 125.765 207.544L246.672 328.451C252.898 334.677 262.998 334.659 269.203 328.412C274.518 323.059 275.15 314.645 273.354 307.318C271.438 299.505 271.486 289.138 280.312 280.312C289.128 271.496 299.522 271.478 307.37 273.424C314.739 275.252 323.217 274.59 328.568 269.203C334.742 262.986 334.725 252.946 328.529 246.75Z" stroke="#EBE4E1" stroke-width="10" stroke-linecap="round"/>
<path d="M223.896 272.371L272.863 223.405" stroke="#EBE4E1" stroke-width="9" stroke-linecap="round"/>
<path d="M210.047 258.521L259.013 209.555" stroke="#EBE4E1" stroke-width="9" stroke-linecap="round"/>
<rect x="150.849" y="227.48" width="7.2132" height="12.022" transform="rotate(-45 150.849 227.48)" fill="#EBE4E1"/>
<rect x="161.068" y="217.262" width="7.2132" height="12.022" transform="rotate(-45 161.068 217.262)" fill="#EBE4E1"/>
<rect x="171.286" y="207.043" width="7.2132" height="12.022" transform="rotate(-45 171.286 207.043)" fill="#EBE4E1"/>
<rect x="181.505" y="196.824" width="7.2132" height="12.022" transform="rotate(-45 181.505 196.824)" fill="#EBE4E1"/>
<rect x="191.724" y="186.606" width="7.2132" height="12.022" transform="rotate(-45 191.724 186.606)" fill="#EBE4E1"/>
<rect x="201.942" y="176.387" width="7.2132" height="12.022" transform="rotate(-45 201.942 176.387)" fill="#EBE4E1"/>
<rect x="212.161" y="166.168" width="7.2132" height="12.022" transform="rotate(-45 212.161 166.168)" fill="#EBE4E1"/>
<rect x="222.38" y="155.95" width="7.2132" height="12.022" transform="rotate(-45 222.38 155.95)" fill="#EBE4E1"/>
<circle cx="228" cy="228" r="188" stroke="#EBE4E1" stroke-width="9"/>
</svg>
