<svg width="30" height="28" viewBox="0 0 30 28" fill="none" xmlns="http://www.w3.org/2000/svg">
<path d="M15 20.2417C16.5 20.2417 17.7604 19.7653 18.7812 18.8125C19.8021 17.8597 20.3125 16.6736 20.3125 15.2542C20.3125 13.8542 19.8021 12.6826 18.7812 11.7396C17.7604 10.7965 16.5 10.325 15 10.325C13.4792 10.325 12.2135 10.7965 11.2031 11.7396C10.1927 12.6826 9.6875 13.8542 9.6875 15.2542C9.6875 16.6736 10.1927 17.8597 11.2031 18.8125C12.2135 19.7653 13.4792 20.2417 15 20.2417ZM15 18.4917C14 18.4917 13.1771 18.1854 12.5312 17.5729C11.8854 16.9604 11.5625 16.1875 11.5625 15.2542C11.5625 14.3403 11.8854 13.5819 12.5312 12.9792C13.1771 12.3764 14 12.075 15 12.075C15.9792 12.075 16.7969 12.3764 17.4531 12.9792C18.1094 13.5819 18.4375 14.3403 18.4375 15.2542C18.4375 16.1875 18.1094 16.9604 17.4531 17.5729C16.7969 18.1854 15.9792 18.4917 15 18.4917ZM4.375 24.5C3.875 24.5 3.4375 24.325 3.0625 23.975C2.6875 23.625 2.5 23.2167 2.5 22.75V7.7875C2.5 7.34028 2.6875 6.93681 3.0625 6.57708C3.4375 6.21736 3.875 6.0375 4.375 6.0375H8.96875L11.25 3.5H18.75L21.0312 6.0375H25.625C26.1042 6.0375 26.5365 6.21736 26.9219 6.57708C27.3073 6.93681 27.5 7.34028 27.5 7.7875V22.75C27.5 23.2167 27.3073 23.625 26.9219 23.975C26.5365 24.325 26.1042 24.5 25.625 24.5H4.375ZM25.625 22.75V7.7875H20.1562L17.875 5.25H12.125L9.84375 7.7875H4.375V22.75H25.625Z" fill="#FDFDFD"/>
</svg>
