<svg width="22" height="22" viewBox="0 0 22 22" fill="none" xmlns="http://www.w3.org/2000/svg">
<path d="M4.07404 5.01848C4.07404 4.49715 4.49715 4.07404 5.01848 4.07404H8.79625C9.31758 4.07404 9.74069 4.49715 9.74069 5.01848V8.79625C9.74069 9.31758 9.31758 9.74069 8.79625 9.74069H5.01848C4.768 9.74069 4.52777 9.64118 4.35066 9.46407C4.17354 9.28695 4.07404 9.04673 4.07404 8.79625V5.01848ZM4.07404 13.2036C4.07404 12.6823 4.49715 12.2592 5.01848 12.2592H8.79625C9.31758 12.2592 9.74069 12.6823 9.74069 13.2036V16.9814C9.74069 17.5027 9.31758 17.9259 8.79625 17.9259H5.01848C4.768 17.9259 4.52777 17.8263 4.35066 17.6492C4.17354 17.4721 4.07404 17.2319 4.07404 16.9814V13.2036ZM12.2592 5.01848C12.2592 4.49715 12.6823 4.07404 13.2036 4.07404H16.9814C17.5027 4.07404 17.9259 4.49715 17.9259 5.01848V8.79625C17.9259 9.31758 17.5027 9.74069 16.9814 9.74069H13.2036C12.9532 9.74069 12.7129 9.64118 12.5358 9.46407C12.3587 9.28695 12.2592 9.04673 12.2592 8.79625V5.01848Z" stroke="black" stroke-width="1.5" stroke-linecap="round" stroke-linejoin="round"/>
<path d="M6.59253 6.59253H7.22216V7.22216H6.59253V6.59253ZM6.59253 14.7777H7.22216V15.4073H6.59253V14.7777ZM14.7777 6.59253H15.4073V7.22216H14.7777V6.59253ZM12.2592 12.2592H12.8888V12.8888H12.2592V12.2592ZM12.2592 17.2962H12.8888V17.9258H12.2592V17.2962ZM17.2962 12.2592H17.9258V12.8888H17.2962V12.2592ZM17.2962 17.2962H17.9258V17.9258H17.2962V17.2962ZM14.7777 14.7777H15.4073V15.4073H14.7777V14.7777Z" stroke="black" stroke-width="1.5" stroke-linecap="round" stroke-linejoin="round"/>
</svg>
