<svg width="360" height="626" viewBox="0 0 360 626" fill="none" xmlns="http://www.w3.org/2000/svg">
<path d="M23.4354 281.492H46.5662V276.298H18V290.581H23.4354V281.492ZM18 317.199V322.393H47.1097V317.199H18ZM23.4354 301.293H43.5465V296.424H18V311.356H23.4354V301.293Z" fill="#EBE4E1"/>
<path d="M50.0369 276.298L64.4105 314.148L67.1283 307.461L55.7743 276.298H50.0369ZM84.0989 276.298L69.9668 315.057L67.3094 321.743L67.6114 322.393H72.3221L89.8362 276.298H84.0989Z" fill="#EBE4E1"/>
<path d="M101.051 281.492H124.181V276.298H95.6151V290.581H101.051V281.492ZM95.6151 317.199V322.393H124.725V317.199H95.6151ZM101.051 301.293H121.162V296.424H95.6151V311.356H101.051V301.293Z" fill="#EBE4E1"/>
<path d="M132.182 322.393H137.617V296.489L132.182 288.893V322.393ZM162.982 276.363V312.2L136.409 276.298H132.182V279.804L137.617 287.205L163.828 322.393H168.418V276.363H162.982Z" fill="#EBE4E1"/>
<path d="M189.346 322.393H194.781V287.335H189.346V322.393ZM174.55 276.298V281.492H209.578V276.298H174.55Z" fill="#EBE4E1"/>
<path d="M220.09 323.042C222.808 323.042 225.344 322.393 227.639 321.029C229.934 319.666 231.746 317.718 233.196 315.121L233.316 319.082C233.316 320.12 233.679 320.964 234.403 321.614C235.128 322.263 235.974 322.587 237.061 322.587C237.363 322.587 237.665 322.587 238.027 322.587C238.389 322.587 238.873 322.523 239.476 322.393V317.459C238.329 317.459 237.785 316.744 237.785 315.381V288.504H232.471V309.733C231.505 312.33 230.115 314.407 228.183 315.901C226.25 317.394 224.257 318.108 222.083 318.108C217.614 318.108 215.379 314.667 215.379 307.72V288.504H210.065V308.824C210.065 313.563 210.91 317.134 212.601 319.471C214.292 321.873 216.768 323.042 220.09 323.042V323.042Z" fill="#EBE4E1"/>
<path d="M254.79 323.042C257.206 323.042 259.501 322.523 261.675 321.484C263.849 320.445 265.6 318.887 267.05 316.809L267.171 319.212C267.291 320.185 267.654 321.029 268.258 321.679C268.862 322.328 269.707 322.652 270.794 322.652C271.157 322.652 271.579 322.652 271.942 322.587C272.304 322.587 272.727 322.523 273.331 322.393V317.459C272.183 317.459 271.64 316.745 271.64 315.381V301.553C271.64 297.268 270.432 293.892 268.137 291.49C265.842 289.153 262.581 287.919 258.474 287.919C254.367 287.919 250.26 289.413 246.214 292.334L247.966 296.035C251.468 293.438 254.79 292.074 257.991 292.074C260.648 292.074 262.702 292.918 264.151 294.476C265.6 296.035 266.325 298.242 266.325 300.969V303.695C265.117 303.176 263.728 302.786 262.158 302.462C260.588 302.202 259.018 302.007 257.508 302.007C255.575 302.007 253.763 302.267 252.133 302.786C250.502 303.306 249.113 304.02 247.905 304.929C246.697 305.838 245.791 306.941 245.187 308.24C244.523 309.538 244.221 310.902 244.221 312.46C244.221 314.018 244.463 315.381 245.006 316.68C245.55 317.978 246.274 319.082 247.241 319.991C248.207 320.964 249.294 321.743 250.623 322.263C251.891 322.782 253.28 323.042 254.79 323.042V323.042ZM256.179 318.757C255.213 318.757 254.307 318.627 253.461 318.238C252.616 317.913 251.831 317.459 251.227 316.809C250.623 316.225 250.14 315.511 249.777 314.667C249.415 313.888 249.294 312.979 249.294 312.005C249.294 310.058 250.079 308.499 251.77 307.266C253.461 306.097 255.635 305.448 258.293 305.448C261.071 305.448 263.728 306.032 266.325 307.071V312.07C266.325 312.979 265.902 313.823 265.178 314.602C264.332 315.901 263.064 316.874 261.433 317.653C259.803 318.432 258.051 318.757 256.179 318.757V318.757Z" fill="#EBE4E1"/>
<path d="M280.318 275V315.706C280.318 317.978 280.861 319.731 282.069 320.964C283.277 322.263 284.908 322.847 286.961 322.847C287.867 322.847 288.954 322.717 290.162 322.458C291.37 322.198 292.396 321.873 293.302 321.484L292.457 316.874C291.913 317.134 291.37 317.329 290.766 317.459C290.162 317.588 289.618 317.653 289.196 317.653C288.048 317.653 287.142 317.329 286.538 316.615C285.934 315.901 285.632 314.927 285.632 313.628V275H280.318Z" fill="#EBE4E1"/>
<path d="M297.539 275V315.706C297.539 317.978 298.083 319.731 299.291 320.964C300.498 322.263 302.129 322.847 304.183 322.847C305.088 322.847 306.175 322.717 307.383 322.458C308.591 322.198 309.618 321.873 310.524 321.484L309.678 316.874C309.135 317.134 308.591 317.329 307.987 317.459C307.383 317.588 306.84 317.653 306.417 317.653C305.27 317.653 304.364 317.329 303.76 316.615C303.156 315.901 302.854 314.927 302.854 313.628V275H297.539Z" fill="#EBE4E1"/>
<path d="M314.91 331.612V336.675C315.454 336.805 315.937 336.935 316.299 336.935C316.661 337 317.084 337 317.447 337C319.741 337 321.493 336.481 322.822 335.312C324.15 334.143 325.056 332.845 325.66 331.287L341 288.504H335.927L326.143 317.264L315.393 288.504H309.897L323.244 322.393C322.52 324.405 321.916 326.028 321.433 327.262C320.949 328.495 320.466 329.469 320.104 330.118C319.741 330.832 319.319 331.287 318.956 331.547C318.594 331.806 318.171 331.871 317.688 331.871C317.386 331.871 316.963 331.871 316.48 331.806C315.937 331.806 315.393 331.741 314.91 331.612V331.612Z" fill="#EBE4E1"/>
<path d="M220.472 225.433L171.673 176.634C169.111 174.072 164.96 174.065 162.389 176.618C160.25 178.742 159.903 182.07 160.548 185.015C161.242 188.185 161.187 192.371 157.779 195.779C154.371 199.187 150.185 199.242 147.015 198.548C144.07 197.903 140.742 198.25 138.618 200.389C136.065 202.96 136.072 207.111 138.634 209.673L187.402 258.441C189.917 260.956 193.998 260.949 196.505 258.425C198.652 256.263 198.907 252.863 198.181 249.903C197.407 246.747 197.427 242.558 200.992 238.992C204.554 235.431 208.754 235.423 211.924 236.21C214.901 236.948 218.327 236.681 220.488 234.504C222.982 231.993 222.975 227.937 220.472 225.433Z" stroke="#EBE4E1" stroke-width="4" stroke-linecap="round"/>
<path d="M178.2 235.784L197.983 216.002" stroke="#EBE4E1" stroke-width="3" stroke-linecap="round"/>
<path d="M172.605 230.189L192.388 210.406" stroke="#EBE4E1" stroke-width="3" stroke-linecap="round"/>
<rect x="148.689" y="217.648" width="2.91416" height="4.85694" transform="rotate(-45 148.689 217.648)" fill="#EBE4E1"/>
<rect x="152.817" y="213.52" width="2.91416" height="4.85694" transform="rotate(-45 152.817 213.52)" fill="#EBE4E1"/>
<rect x="156.946" y="209.392" width="2.91416" height="4.85694" transform="rotate(-45 156.946 209.392)" fill="#EBE4E1"/>
<rect x="161.074" y="205.263" width="2.91416" height="4.85694" transform="rotate(-45 161.074 205.263)" fill="#EBE4E1"/>
<rect x="165.203" y="201.135" width="2.91416" height="4.85694" transform="rotate(-45 165.203 201.135)" fill="#EBE4E1"/>
<rect x="169.331" y="197.006" width="2.91416" height="4.85694" transform="rotate(-45 169.331 197.006)" fill="#EBE4E1"/>
<rect x="173.459" y="192.878" width="2.91416" height="4.85694" transform="rotate(-45 173.459 192.878)" fill="#EBE4E1"/>
<rect x="177.588" y="188.75" width="2.91416" height="4.85694" transform="rotate(-45 177.588 188.75)" fill="#EBE4E1"/>
<path d="M119.016 345H112.547V333.578H119.016V335.156H114.422V338.258H118.727V339.828H114.422V343.414H119.016V345ZM123.273 345L119.984 336.352H121.93L123.711 341.43C123.826 341.753 123.93 342.102 124.023 342.477C124.117 342.852 124.182 343.167 124.219 343.422H124.281C124.318 343.156 124.388 342.839 124.492 342.469C124.596 342.094 124.703 341.747 124.812 341.43L126.594 336.352H128.531L125.242 345H123.273ZM133.289 336.188C134.06 336.188 134.721 336.346 135.273 336.664C135.826 336.982 136.25 337.432 136.547 338.016C136.844 338.599 136.992 339.297 136.992 340.109V341.094H131.219C131.24 341.932 131.464 342.578 131.891 343.031C132.323 343.484 132.927 343.711 133.703 343.711C134.255 343.711 134.75 343.659 135.188 343.555C135.63 343.445 136.086 343.286 136.555 343.078V344.57C136.122 344.773 135.682 344.922 135.234 345.016C134.786 345.109 134.25 345.156 133.625 345.156C132.776 345.156 132.029 344.992 131.383 344.664C130.742 344.331 130.24 343.836 129.875 343.18C129.516 342.523 129.336 341.708 129.336 340.734C129.336 339.766 129.5 338.943 129.828 338.266C130.156 337.589 130.617 337.073 131.211 336.719C131.805 336.365 132.497 336.188 133.289 336.188ZM133.289 337.57C132.711 337.57 132.242 337.758 131.883 338.133C131.529 338.508 131.32 339.057 131.258 339.781H135.195C135.19 339.349 135.117 338.966 134.977 338.633C134.841 338.299 134.633 338.039 134.352 337.852C134.076 337.664 133.721 337.57 133.289 337.57ZM143.57 336.188C144.544 336.188 145.302 336.44 145.844 336.945C146.391 337.445 146.664 338.25 146.664 339.359V345H144.828V339.703C144.828 339.031 144.69 338.529 144.414 338.195C144.138 337.857 143.711 337.688 143.133 337.688C142.294 337.688 141.711 337.945 141.383 338.461C141.06 338.977 140.898 339.724 140.898 340.703V345H139.062V336.352H140.492L140.75 337.523H140.852C141.039 337.221 141.271 336.974 141.547 336.781C141.828 336.583 142.141 336.435 142.484 336.336C142.833 336.237 143.195 336.188 143.57 336.188ZM152.453 343.672C152.693 343.672 152.93 343.651 153.164 343.609C153.398 343.562 153.612 343.508 153.805 343.445V344.836C153.602 344.924 153.339 345 153.016 345.062C152.693 345.125 152.357 345.156 152.008 345.156C151.518 345.156 151.078 345.076 150.688 344.914C150.297 344.747 149.987 344.464 149.758 344.062C149.529 343.661 149.414 343.107 149.414 342.398V337.75H148.234V336.93L149.5 336.281L150.102 334.43H151.258V336.352H153.734V337.75H151.258V342.375C151.258 342.812 151.367 343.138 151.586 343.352C151.805 343.565 152.094 343.672 152.453 343.672ZM161.375 342.531C161.375 343.099 161.237 343.578 160.961 343.969C160.685 344.359 160.281 344.656 159.75 344.859C159.224 345.057 158.578 345.156 157.812 345.156C157.208 345.156 156.688 345.112 156.25 345.023C155.818 344.94 155.409 344.81 155.023 344.633V343.047C155.435 343.24 155.896 343.406 156.406 343.547C156.922 343.688 157.409 343.758 157.867 343.758C158.471 343.758 158.906 343.664 159.172 343.477C159.438 343.284 159.57 343.029 159.57 342.711C159.57 342.523 159.516 342.357 159.406 342.211C159.302 342.06 159.104 341.906 158.812 341.75C158.526 341.589 158.104 341.396 157.547 341.172C157 340.953 156.539 340.734 156.164 340.516C155.789 340.297 155.505 340.034 155.312 339.727C155.12 339.414 155.023 339.016 155.023 338.531C155.023 337.766 155.326 337.185 155.93 336.789C156.539 336.388 157.344 336.188 158.344 336.188C158.875 336.188 159.375 336.242 159.844 336.352C160.318 336.456 160.781 336.609 161.234 336.812L160.656 338.195C160.266 338.023 159.872 337.883 159.477 337.773C159.086 337.659 158.688 337.602 158.281 337.602C157.807 337.602 157.445 337.674 157.195 337.82C156.951 337.966 156.828 338.174 156.828 338.445C156.828 338.648 156.888 338.82 157.008 338.961C157.128 339.102 157.333 339.242 157.625 339.383C157.922 339.523 158.333 339.698 158.859 339.906C159.375 340.104 159.82 340.312 160.195 340.531C160.576 340.745 160.867 341.008 161.07 341.32C161.273 341.633 161.375 342.036 161.375 342.531ZM177.289 336.188C178.258 336.188 178.987 336.438 179.477 336.938C179.971 337.438 180.219 338.24 180.219 339.344V345H178.383V339.672C178.383 339.016 178.255 338.521 178 338.188C177.745 337.854 177.357 337.688 176.836 337.688C176.107 337.688 175.581 337.922 175.258 338.391C174.94 338.854 174.781 339.529 174.781 340.414V345H172.945V339.672C172.945 339.234 172.888 338.87 172.773 338.578C172.664 338.281 172.495 338.06 172.266 337.914C172.036 337.763 171.747 337.688 171.398 337.688C170.893 337.688 170.49 337.802 170.188 338.031C169.891 338.26 169.677 338.599 169.547 339.047C169.417 339.49 169.352 340.034 169.352 340.68V345H167.516V336.352H168.945L169.203 337.516H169.305C169.482 337.214 169.701 336.966 169.961 336.773C170.227 336.576 170.521 336.43 170.844 336.336C171.167 336.237 171.503 336.188 171.852 336.188C172.497 336.188 173.042 336.302 173.484 336.531C173.927 336.755 174.258 337.099 174.477 337.562H174.617C174.888 337.094 175.266 336.747 175.75 336.523C176.234 336.299 176.747 336.188 177.289 336.188ZM186.172 336.188C187.266 336.188 188.091 336.43 188.648 336.914C189.211 337.398 189.492 338.154 189.492 339.18V345H188.188L187.836 343.773H187.773C187.529 344.086 187.276 344.344 187.016 344.547C186.755 344.75 186.453 344.901 186.109 345C185.771 345.104 185.357 345.156 184.867 345.156C184.352 345.156 183.891 345.062 183.484 344.875C183.078 344.682 182.758 344.391 182.523 344C182.289 343.609 182.172 343.115 182.172 342.516C182.172 341.625 182.503 340.956 183.164 340.508C183.831 340.06 184.836 339.812 186.18 339.766L187.68 339.711V339.258C187.68 338.659 187.539 338.232 187.258 337.977C186.982 337.721 186.591 337.594 186.086 337.594C185.654 337.594 185.234 337.656 184.828 337.781C184.422 337.906 184.026 338.06 183.641 338.242L183.047 336.945C183.469 336.721 183.948 336.539 184.484 336.398C185.026 336.258 185.589 336.188 186.172 336.188ZM187.672 340.867L186.555 340.906C185.638 340.938 184.995 341.094 184.625 341.375C184.255 341.656 184.07 342.042 184.07 342.531C184.07 342.958 184.198 343.271 184.453 343.469C184.708 343.661 185.044 343.758 185.461 343.758C186.096 343.758 186.622 343.578 187.039 343.219C187.461 342.854 187.672 342.32 187.672 341.617V340.867ZM194.969 345.156C193.938 345.156 193.109 344.781 192.484 344.031C191.865 343.276 191.555 342.164 191.555 340.695C191.555 339.211 191.87 338.089 192.5 337.328C193.135 336.568 193.971 336.188 195.008 336.188C195.445 336.188 195.828 336.247 196.156 336.367C196.484 336.482 196.766 336.638 197 336.836C197.24 337.034 197.443 337.255 197.609 337.5H197.695C197.669 337.339 197.638 337.107 197.602 336.805C197.57 336.497 197.555 336.214 197.555 335.953V332.844H199.398V345H197.961L197.633 343.82H197.555C197.398 344.07 197.201 344.297 196.961 344.5C196.727 344.698 196.445 344.857 196.117 344.977C195.794 345.096 195.411 345.156 194.969 345.156ZM195.484 343.664C196.271 343.664 196.826 343.438 197.148 342.984C197.471 342.531 197.638 341.852 197.648 340.945V340.703C197.648 339.734 197.492 338.992 197.18 338.477C196.867 337.956 196.297 337.695 195.469 337.695C194.807 337.695 194.302 337.964 193.953 338.5C193.609 339.031 193.438 339.773 193.438 340.727C193.438 341.68 193.609 342.409 193.953 342.914C194.302 343.414 194.812 343.664 195.484 343.664ZM205.477 336.188C206.247 336.188 206.909 336.346 207.461 336.664C208.013 336.982 208.438 337.432 208.734 338.016C209.031 338.599 209.18 339.297 209.18 340.109V341.094H203.406C203.427 341.932 203.651 342.578 204.078 343.031C204.51 343.484 205.115 343.711 205.891 343.711C206.443 343.711 206.938 343.659 207.375 343.555C207.818 343.445 208.273 343.286 208.742 343.078V344.57C208.31 344.773 207.87 344.922 207.422 345.016C206.974 345.109 206.438 345.156 205.812 345.156C204.964 345.156 204.216 344.992 203.57 344.664C202.93 344.331 202.427 343.836 202.062 343.18C201.703 342.523 201.523 341.708 201.523 340.734C201.523 339.766 201.688 338.943 202.016 338.266C202.344 337.589 202.805 337.073 203.398 336.719C203.992 336.365 204.685 336.188 205.477 336.188ZM205.477 337.57C204.898 337.57 204.43 337.758 204.07 338.133C203.716 338.508 203.508 339.057 203.445 339.781H207.383C207.378 339.349 207.305 338.966 207.164 338.633C207.029 338.299 206.82 338.039 206.539 337.852C206.263 337.664 205.909 337.57 205.477 337.57ZM218.852 336.188C219.622 336.188 220.284 336.346 220.836 336.664C221.388 336.982 221.812 337.432 222.109 338.016C222.406 338.599 222.555 339.297 222.555 340.109V341.094H216.781C216.802 341.932 217.026 342.578 217.453 343.031C217.885 343.484 218.49 343.711 219.266 343.711C219.818 343.711 220.312 343.659 220.75 343.555C221.193 343.445 221.648 343.286 222.117 343.078V344.57C221.685 344.773 221.245 344.922 220.797 345.016C220.349 345.109 219.812 345.156 219.188 345.156C218.339 345.156 217.591 344.992 216.945 344.664C216.305 344.331 215.802 343.836 215.438 343.18C215.078 342.523 214.898 341.708 214.898 340.734C214.898 339.766 215.062 338.943 215.391 338.266C215.719 337.589 216.18 337.073 216.773 336.719C217.367 336.365 218.06 336.188 218.852 336.188ZM218.852 337.57C218.273 337.57 217.805 337.758 217.445 338.133C217.091 338.508 216.883 339.057 216.82 339.781H220.758C220.753 339.349 220.68 338.966 220.539 338.633C220.404 338.299 220.195 338.039 219.914 337.852C219.638 337.664 219.284 337.57 218.852 337.57ZM228.016 336.188C229.109 336.188 229.935 336.43 230.492 336.914C231.055 337.398 231.336 338.154 231.336 339.18V345H230.031L229.68 343.773H229.617C229.372 344.086 229.12 344.344 228.859 344.547C228.599 344.75 228.297 344.901 227.953 345C227.615 345.104 227.201 345.156 226.711 345.156C226.195 345.156 225.734 345.062 225.328 344.875C224.922 344.682 224.602 344.391 224.367 344C224.133 343.609 224.016 343.115 224.016 342.516C224.016 341.625 224.346 340.956 225.008 340.508C225.674 340.06 226.68 339.812 228.023 339.766L229.523 339.711V339.258C229.523 338.659 229.383 338.232 229.102 337.977C228.826 337.721 228.435 337.594 227.93 337.594C227.497 337.594 227.078 337.656 226.672 337.781C226.266 337.906 225.87 338.06 225.484 338.242L224.891 336.945C225.312 336.721 225.792 336.539 226.328 336.398C226.87 336.258 227.432 336.188 228.016 336.188ZM229.516 340.867L228.398 340.906C227.482 340.938 226.839 341.094 226.469 341.375C226.099 341.656 225.914 342.042 225.914 342.531C225.914 342.958 226.042 343.271 226.297 343.469C226.552 343.661 226.888 343.758 227.305 343.758C227.94 343.758 228.466 343.578 228.883 343.219C229.305 342.854 229.516 342.32 229.516 341.617V340.867ZM239.719 342.531C239.719 343.099 239.581 343.578 239.305 343.969C239.029 344.359 238.625 344.656 238.094 344.859C237.568 345.057 236.922 345.156 236.156 345.156C235.552 345.156 235.031 345.112 234.594 345.023C234.161 344.94 233.753 344.81 233.367 344.633V343.047C233.779 343.24 234.24 343.406 234.75 343.547C235.266 343.688 235.753 343.758 236.211 343.758C236.815 343.758 237.25 343.664 237.516 343.477C237.781 343.284 237.914 343.029 237.914 342.711C237.914 342.523 237.859 342.357 237.75 342.211C237.646 342.06 237.448 341.906 237.156 341.75C236.87 341.589 236.448 341.396 235.891 341.172C235.344 340.953 234.883 340.734 234.508 340.516C234.133 340.297 233.849 340.034 233.656 339.727C233.464 339.414 233.367 339.016 233.367 338.531C233.367 337.766 233.669 337.185 234.273 336.789C234.883 336.388 235.688 336.188 236.688 336.188C237.219 336.188 237.719 336.242 238.188 336.352C238.661 336.456 239.125 336.609 239.578 336.812L239 338.195C238.609 338.023 238.216 337.883 237.82 337.773C237.43 337.659 237.031 337.602 236.625 337.602C236.151 337.602 235.789 337.674 235.539 337.82C235.294 337.966 235.172 338.174 235.172 338.445C235.172 338.648 235.232 338.82 235.352 338.961C235.471 339.102 235.677 339.242 235.969 339.383C236.266 339.523 236.677 339.698 237.203 339.906C237.719 340.104 238.164 340.312 238.539 340.531C238.919 340.745 239.211 341.008 239.414 341.32C239.617 341.633 239.719 342.036 239.719 342.531ZM240.398 336.352H242.398L244.172 341.289C244.25 341.513 244.32 341.734 244.383 341.953C244.451 342.167 244.508 342.378 244.555 342.586C244.607 342.794 244.648 343.003 244.68 343.211H244.727C244.779 342.94 244.852 342.638 244.945 342.305C245.044 341.966 245.154 341.628 245.273 341.289L246.977 336.352H248.953L245.242 346.188C245.029 346.75 244.766 347.229 244.453 347.625C244.146 348.026 243.781 348.328 243.359 348.531C242.938 348.74 242.456 348.844 241.914 348.844C241.654 348.844 241.427 348.828 241.234 348.797C241.042 348.771 240.878 348.742 240.742 348.711V347.242C240.852 347.268 240.99 347.292 241.156 347.312C241.323 347.333 241.495 347.344 241.672 347.344C242 347.344 242.284 347.279 242.523 347.148C242.763 347.018 242.966 346.833 243.133 346.594C243.299 346.359 243.438 346.091 243.547 345.789L243.852 344.977L240.398 336.352Z" fill="#EBE4E1"/>
</svg>
