<svg width="418" height="74" viewBox="0 0 418 74" fill="none" xmlns="http://www.w3.org/2000/svg">
<g clip-path="url(#clip0_3_23)">
<path d="M7.03421 7.74871H36.9681V1.54976H0.00012207V18.5969H7.03421V7.74871ZM0.00012207 50.3665V56.5655H37.6715V50.3665H0.00012207ZM7.03421 31.3822H33.0603V25.5707H0.00012207V43.3927H7.03421V31.3822Z" fill="#EBE4E1"/>
<path d="M41.4597 1.54976L60.0609 46.7246L63.5779 38.7435L48.8845 1.54976H41.4597ZM85.5398 1.54976L67.2513 47.8094L63.8124 55.7906L64.2031 56.5655H70.2993L92.9647 1.54976H85.5398Z" fill="#EBE4E1"/>
<path d="M107.477 7.74871H137.411V1.54976H100.443V18.5969H107.477V7.74871ZM100.443 50.3665V56.5655H138.115V50.3665H100.443ZM107.477 31.3822H133.503V25.5707H100.443V43.3927H107.477V31.3822Z" fill="#EBE4E1"/>
<path d="M147.764 56.5655H154.799V25.6482L147.764 16.5822V56.5655ZM187.624 1.62724V44.4L153.235 1.54976H147.764V5.73405L154.799 14.5676L188.718 56.5655H194.658V1.62724H187.624Z" fill="#EBE4E1"/>
<path d="M221.742 56.5655H228.776V14.7225H221.742V56.5655ZM202.594 1.54976V7.74871H247.924V1.54976H202.594Z" fill="#EBE4E1"/>
<path d="M261.528 57.3403C265.045 57.3403 268.328 56.5654 271.298 54.9382C274.268 53.311 276.613 50.9864 278.488 47.8869L278.645 52.6136C278.645 53.8534 279.114 54.8607 280.051 55.6356C280.989 56.4105 282.083 56.7979 283.49 56.7979C283.881 56.7979 284.272 56.7979 284.741 56.7979C285.21 56.7979 285.835 56.7204 286.617 56.5654V50.6764C285.132 50.6764 284.428 49.8241 284.428 48.1969V16.1173H277.55V41.4555C276.3 44.555 274.502 47.0346 272.001 48.8168C269.5 50.599 266.921 51.4513 264.108 51.4513C258.324 51.4513 255.432 47.3445 255.432 39.0534V16.1173H248.554V40.3707C248.554 46.0272 249.649 50.289 251.837 53.0785C254.025 55.9455 257.23 57.3403 261.528 57.3403Z" fill="#EBE4E1"/>
<path d="M306.434 57.3403C309.56 57.3403 312.53 56.7204 315.344 55.4806C318.158 54.2408 320.424 52.3811 322.3 49.9016L322.456 52.7686C322.612 53.9309 323.081 54.9382 323.863 55.7131C324.645 56.4879 325.739 56.8754 327.146 56.8754C327.615 56.8754 328.162 56.8754 328.631 56.7979C329.099 56.7979 329.647 56.7204 330.428 56.5654V50.6764C328.943 50.6764 328.24 49.8241 328.24 48.1968V31.6921C328.24 26.578 326.677 22.5487 323.707 19.6817C320.737 16.8921 316.516 15.4199 311.202 15.4199C305.887 15.4199 300.572 17.2021 295.336 20.689L297.602 25.1058C302.136 22.0063 306.434 20.3791 310.576 20.3791C314.015 20.3791 316.673 21.3864 318.548 23.2461C320.424 25.1058 321.362 27.7403 321.362 30.9948V34.2492C319.799 33.6293 318.001 33.1644 315.969 32.777C313.937 32.467 311.905 32.2345 309.951 32.2345C307.45 32.2345 305.105 32.5445 302.995 33.1644C300.885 33.7843 299.087 34.6366 297.524 35.7215C295.961 36.8063 294.789 38.1236 294.007 39.6733C293.148 41.223 292.757 42.8503 292.757 44.7099C292.757 46.5696 293.069 48.1968 293.773 49.7466C294.476 51.2963 295.414 52.6136 296.665 53.6984C297.915 54.8607 299.322 55.7906 301.041 56.4105C302.683 57.0304 304.48 57.3403 306.434 57.3403ZM308.232 52.2262C306.981 52.2262 305.809 52.0712 304.715 51.6063C303.621 51.2188 302.604 50.6764 301.823 49.9016C301.041 49.2042 300.416 48.3518 299.947 47.3445C299.478 46.4147 299.322 45.3298 299.322 44.1675C299.322 41.8429 300.338 39.9832 302.526 38.511C304.715 37.1162 307.528 36.3414 310.967 36.3414C314.562 36.3414 318.001 37.0387 321.362 38.2785V44.245C321.362 45.3298 320.815 46.3372 319.877 47.267C318.783 48.8167 317.142 49.979 315.031 50.9089C312.921 51.8387 310.655 52.2262 308.232 52.2262Z" fill="#EBE4E1"/>
<path d="M339.47 0V48.5843C339.47 51.2963 340.173 53.3885 341.736 54.8607C343.299 56.4105 345.41 57.1079 348.067 57.1079C349.239 57.1079 350.646 56.9529 352.209 56.6429C353.772 56.333 355.101 55.9455 356.273 55.4806L355.179 49.9791C354.476 50.289 353.772 50.5215 352.991 50.6764C352.209 50.8314 351.506 50.9089 350.959 50.9089C349.474 50.9089 348.301 50.5215 347.52 49.6691C346.738 48.8168 346.348 47.6544 346.348 46.1047V0H339.47Z" fill="#EBE4E1"/>
<path d="M361.757 0V48.5843C361.757 51.2963 362.46 53.3885 364.023 54.8607C365.586 56.4105 367.696 57.1079 370.354 57.1079C371.526 57.1079 372.933 56.9529 374.496 56.6429C376.059 56.333 377.388 55.9455 378.56 55.4806L377.466 49.9791C376.763 50.289 376.059 50.5215 375.278 50.6764C374.496 50.8314 373.793 50.9089 373.246 50.9089C371.761 50.9089 370.588 50.5215 369.807 49.6691C369.025 48.8168 368.634 47.6544 368.634 46.1047V0H361.757Z" fill="#EBE4E1"/>
<path d="M384.236 67.5686V73.6126C384.94 73.7675 385.565 73.9225 386.034 73.9225C386.503 74 387.05 74 387.519 74C390.489 74 392.755 73.3801 394.475 71.9853C396.194 70.5906 397.367 69.0408 398.148 67.1811L418 16.1173H411.435L398.773 50.444L384.862 16.1173H377.749L395.022 56.5654C394.084 58.9675 393.302 60.9047 392.677 62.377C392.052 63.8492 391.427 65.0115 390.958 65.7864C390.489 66.6387 389.942 67.1812 389.473 67.4911C389.004 67.801 388.457 67.8785 387.831 67.8785C387.441 67.8785 386.894 67.8785 386.268 67.801C385.565 67.801 384.862 67.7236 384.236 67.5686Z" fill="#EBE4E1"/>
</g>
<defs>
<clipPath id="clip0_3_23">
<rect width="418" height="74" fill="white"/>
</clipPath>
</defs>
</svg>
