<svg width="209" height="42" viewBox="0 0 209 42" fill="none" xmlns="http://www.w3.org/2000/svg">
<g clip-path="url(#clip0_6_249)">
<path d="M11.9531 30H2.25V12.8672H11.9531V15.2344H5.0625V19.8867H11.5195V22.2422H5.0625V27.6211H11.9531V30ZM18.3398 30L13.4062 17.0273H16.3242L18.9961 24.6445C19.168 25.1289 19.3242 25.6523 19.4648 26.2148C19.6055 26.7773 19.7031 27.25 19.7578 27.6328H19.8516C19.9062 27.2344 20.0117 26.7578 20.168 26.2031C20.3242 25.6406 20.4844 25.1211 20.6484 24.6445L23.3203 17.0273H26.2266L21.293 30H18.3398ZM33.3633 16.7812C34.5195 16.7812 35.5117 17.0195 36.3398 17.4961C37.168 17.9727 37.8047 18.6484 38.25 19.5234C38.6953 20.3984 38.918 21.4453 38.918 22.6641V24.1406H30.2578C30.2891 25.3984 30.625 26.3672 31.2656 27.0469C31.9141 27.7266 32.8203 28.0664 33.9844 28.0664C34.8125 28.0664 35.5547 27.9883 36.2109 27.832C36.875 27.668 37.5586 27.4297 38.2617 27.1172V29.3555C37.6133 29.6602 36.9531 29.8828 36.2812 30.0234C35.6094 30.1641 34.8047 30.2344 33.8672 30.2344C32.5938 30.2344 31.4727 29.9883 30.5039 29.4961C29.543 28.9961 28.7891 28.2539 28.2422 27.2695C27.7031 26.2852 27.4336 25.0625 27.4336 23.6016C27.4336 22.1484 27.6797 20.9141 28.1719 19.8984C28.6641 18.8828 29.3555 18.1094 30.2461 17.5781C31.1367 17.0469 32.1758 16.7812 33.3633 16.7812ZM33.3633 18.8555C32.4961 18.8555 31.793 19.1367 31.2539 19.6992C30.7227 20.2617 30.4102 21.0859 30.3164 22.1719H36.2227C36.2148 21.5234 36.1055 20.9492 35.8945 20.4492C35.6914 19.9492 35.3789 19.5586 34.957 19.2773C34.543 18.9961 34.0117 18.8555 33.3633 18.8555ZM48.7852 16.7812C50.2461 16.7812 51.3828 17.1602 52.1953 17.918C53.0156 18.668 53.4258 19.875 53.4258 21.5391V30H50.6719V22.0547C50.6719 21.0469 50.4648 20.293 50.0508 19.793C49.6367 19.2852 48.9961 19.0312 48.1289 19.0312C46.8711 19.0312 45.9961 19.418 45.5039 20.1914C45.0195 20.9648 44.7773 22.0859 44.7773 23.5547V30H42.0234V17.0273H44.168L44.5547 18.7852H44.707C44.9883 18.332 45.3359 17.9609 45.75 17.6719C46.1719 17.375 46.6406 17.1523 47.1562 17.0039C47.6797 16.8555 48.2227 16.7812 48.7852 16.7812ZM62.1094 28.0078C62.4688 28.0078 62.8242 27.9766 63.1758 27.9141C63.5273 27.8438 63.8477 27.7617 64.1367 27.668V29.7539C63.832 29.8867 63.4375 30 62.9531 30.0938C62.4688 30.1875 61.9648 30.2344 61.4414 30.2344C60.707 30.2344 60.0469 30.1133 59.4609 29.8711C58.875 29.6211 58.4102 29.1953 58.0664 28.5938C57.7227 27.9922 57.5508 27.1602 57.5508 26.0977V19.125H55.7812V17.8945L57.6797 16.9219L58.582 14.1445H60.3164V17.0273H64.0312V19.125H60.3164V26.0625C60.3164 26.7188 60.4805 27.207 60.8086 27.5273C61.1367 27.8477 61.5703 28.0078 62.1094 28.0078ZM75.4922 26.2969C75.4922 27.1484 75.2852 27.8672 74.8711 28.4531C74.457 29.0391 73.8516 29.4844 73.0547 29.7891C72.2656 30.0859 71.2969 30.2344 70.1484 30.2344C69.2422 30.2344 68.4609 30.168 67.8047 30.0352C67.1562 29.9102 66.543 29.7148 65.9648 29.4492V27.0703C66.582 27.3594 67.2734 27.6094 68.0391 27.8203C68.8125 28.0312 69.543 28.1367 70.2305 28.1367C71.1367 28.1367 71.7891 27.9961 72.1875 27.7148C72.5859 27.4258 72.7852 27.043 72.7852 26.5664C72.7852 26.2852 72.7031 26.0352 72.5391 25.8164C72.3828 25.5898 72.0859 25.3594 71.6484 25.125C71.2188 24.8828 70.5859 24.5938 69.75 24.2578C68.9297 23.9297 68.2383 23.6016 67.6758 23.2734C67.1133 22.9453 66.6875 22.5508 66.3984 22.0898C66.1094 21.6211 65.9648 21.0234 65.9648 20.2969C65.9648 19.1484 66.418 18.2773 67.3242 17.6836C68.2383 17.082 69.4453 16.7812 70.9453 16.7812C71.7422 16.7812 72.4922 16.8633 73.1953 17.0273C73.9062 17.1836 74.6016 17.4141 75.2812 17.7188L74.4141 19.793C73.8281 19.5352 73.2383 19.3242 72.6445 19.1602C72.0586 18.9883 71.4609 18.9023 70.8516 18.9023C70.1406 18.9023 69.5977 19.0117 69.2227 19.2305C68.8555 19.4492 68.6719 19.7617 68.6719 20.168C68.6719 20.4727 68.7617 20.7305 68.9414 20.9414C69.1211 21.1523 69.4297 21.3633 69.8672 21.5742C70.3125 21.7852 70.9297 22.0469 71.7188 22.3594C72.4922 22.6562 73.1602 22.9688 73.7227 23.2969C74.293 23.6172 74.7305 24.0117 75.0352 24.4805C75.3398 24.9492 75.4922 25.5547 75.4922 26.2969ZM99.3633 16.7812C100.816 16.7812 101.91 17.1562 102.645 17.9062C103.387 18.6562 103.758 19.8594 103.758 21.5156V30H101.004V22.0078C101.004 21.0234 100.812 20.2812 100.43 19.7812C100.047 19.2812 99.4648 19.0312 98.6836 19.0312C97.5898 19.0312 96.8008 19.3828 96.3164 20.0859C95.8398 20.7812 95.6016 21.793 95.6016 23.1211V30H92.8477V22.0078C92.8477 21.3516 92.7617 20.8047 92.5898 20.3672C92.4258 19.9219 92.1719 19.5898 91.8281 19.3711C91.4844 19.1445 91.0508 19.0312 90.5273 19.0312C89.7695 19.0312 89.1641 19.2031 88.7109 19.5469C88.2656 19.8906 87.9453 20.3984 87.75 21.0703C87.5547 21.7344 87.457 22.5508 87.457 23.5195V30H84.7031V17.0273H86.8477L87.2344 18.7734H87.3867C87.6523 18.3203 87.9805 17.9492 88.3711 17.6602C88.7695 17.3633 89.2109 17.1445 89.6953 17.0039C90.1797 16.8555 90.6836 16.7812 91.207 16.7812C92.1758 16.7812 92.9922 16.9531 93.6562 17.2969C94.3203 17.6328 94.8164 18.1484 95.1445 18.8438H95.3555C95.7617 18.1406 96.3281 17.6211 97.0547 17.2852C97.7812 16.9492 98.5508 16.7812 99.3633 16.7812ZM112.688 16.7812C114.328 16.7812 115.566 17.1445 116.402 17.8711C117.246 18.5977 117.668 19.7305 117.668 21.2695V30H115.711L115.184 28.1602H115.09C114.723 28.6289 114.344 29.0156 113.953 29.3203C113.562 29.625 113.109 29.8516 112.594 30C112.086 30.1562 111.465 30.2344 110.73 30.2344C109.957 30.2344 109.266 30.0938 108.656 29.8125C108.047 29.5234 107.566 29.0859 107.215 28.5C106.863 27.9141 106.688 27.1719 106.688 26.2734C106.688 24.9375 107.184 23.9336 108.176 23.2617C109.176 22.5898 110.684 22.2188 112.699 22.1484L114.949 22.0664V21.3867C114.949 20.4883 114.738 19.8477 114.316 19.4648C113.902 19.082 113.316 18.8906 112.559 18.8906C111.91 18.8906 111.281 18.9844 110.672 19.1719C110.062 19.3594 109.469 19.5898 108.891 19.8633L108 17.918C108.633 17.582 109.352 17.3086 110.156 17.0977C110.969 16.8867 111.812 16.7812 112.688 16.7812ZM114.938 23.8008L113.262 23.8594C111.887 23.9062 110.922 24.1406 110.367 24.5625C109.812 24.9844 109.535 25.5625 109.535 26.2969C109.535 26.9375 109.727 27.4062 110.109 27.7031C110.492 27.9922 110.996 28.1367 111.621 28.1367C112.574 28.1367 113.363 27.8672 113.988 27.3281C114.621 26.7812 114.938 25.9805 114.938 24.9258V23.8008ZM125.883 30.2344C124.336 30.2344 123.094 29.6719 122.156 28.5469C121.227 27.4141 120.762 25.7461 120.762 23.543C120.762 21.3164 121.234 19.6328 122.18 18.4922C123.133 17.3516 124.387 16.7812 125.941 16.7812C126.598 16.7812 127.172 16.8711 127.664 17.0508C128.156 17.2227 128.578 17.457 128.93 17.7539C129.289 18.0508 129.594 18.3828 129.844 18.75H129.973C129.934 18.5078 129.887 18.1602 129.832 17.707C129.785 17.2461 129.762 16.8203 129.762 16.4297V11.7656H132.527V30H130.371L129.879 28.2305H129.762C129.527 28.6055 129.23 28.9453 128.871 29.25C128.52 29.5469 128.098 29.7852 127.605 29.9648C127.121 30.1445 126.547 30.2344 125.883 30.2344ZM126.656 27.9961C127.836 27.9961 128.668 27.6562 129.152 26.9766C129.637 26.2969 129.887 25.2773 129.902 23.918V23.5547C129.902 22.1016 129.668 20.9883 129.199 20.2148C128.73 19.4336 127.875 19.043 126.633 19.043C125.641 19.043 124.883 19.4453 124.359 20.25C123.844 21.0469 123.586 22.1602 123.586 23.5898C123.586 25.0195 123.844 26.1133 124.359 26.8711C124.883 27.6211 125.648 27.9961 126.656 27.9961ZM141.645 16.7812C142.801 16.7812 143.793 17.0195 144.621 17.4961C145.449 17.9727 146.086 18.6484 146.531 19.5234C146.977 20.3984 147.199 21.4453 147.199 22.6641V24.1406H138.539C138.57 25.3984 138.906 26.3672 139.547 27.0469C140.195 27.7266 141.102 28.0664 142.266 28.0664C143.094 28.0664 143.836 27.9883 144.492 27.832C145.156 27.668 145.84 27.4297 146.543 27.1172V29.3555C145.895 29.6602 145.234 29.8828 144.562 30.0234C143.891 30.1641 143.086 30.2344 142.148 30.2344C140.875 30.2344 139.754 29.9883 138.785 29.4961C137.824 28.9961 137.07 28.2539 136.523 27.2695C135.984 26.2852 135.715 25.0625 135.715 23.6016C135.715 22.1484 135.961 20.9141 136.453 19.8984C136.945 18.8828 137.637 18.1094 138.527 17.5781C139.418 17.0469 140.457 16.7812 141.645 16.7812ZM141.645 18.8555C140.777 18.8555 140.074 19.1367 139.535 19.6992C139.004 20.2617 138.691 21.0859 138.598 22.1719H144.504C144.496 21.5234 144.387 20.9492 144.176 20.4492C143.973 19.9492 143.66 19.5586 143.238 19.2773C142.824 18.9961 142.293 18.8555 141.645 18.8555ZM161.707 16.7812C162.863 16.7812 163.855 17.0195 164.684 17.4961C165.512 17.9727 166.148 18.6484 166.594 19.5234C167.039 20.3984 167.262 21.4453 167.262 22.6641V24.1406H158.602C158.633 25.3984 158.969 26.3672 159.609 27.0469C160.258 27.7266 161.164 28.0664 162.328 28.0664C163.156 28.0664 163.898 27.9883 164.555 27.832C165.219 27.668 165.902 27.4297 166.605 27.1172V29.3555C165.957 29.6602 165.297 29.8828 164.625 30.0234C163.953 30.1641 163.148 30.2344 162.211 30.2344C160.938 30.2344 159.816 29.9883 158.848 29.4961C157.887 28.9961 157.133 28.2539 156.586 27.2695C156.047 26.2852 155.777 25.0625 155.777 23.6016C155.777 22.1484 156.023 20.9141 156.516 19.8984C157.008 18.8828 157.699 18.1094 158.59 17.5781C159.48 17.0469 160.52 16.7812 161.707 16.7812ZM161.707 18.8555C160.84 18.8555 160.137 19.1367 159.598 19.6992C159.066 20.2617 158.754 21.0859 158.66 22.1719H164.566C164.559 21.5234 164.449 20.9492 164.238 20.4492C164.035 19.9492 163.723 19.5586 163.301 19.2773C162.887 18.9961 162.355 18.8555 161.707 18.8555ZM175.453 16.7812C177.094 16.7812 178.332 17.1445 179.168 17.8711C180.012 18.5977 180.434 19.7305 180.434 21.2695V30H178.477L177.949 28.1602H177.855C177.488 28.6289 177.109 29.0156 176.719 29.3203C176.328 29.625 175.875 29.8516 175.359 30C174.852 30.1562 174.23 30.2344 173.496 30.2344C172.723 30.2344 172.031 30.0938 171.422 29.8125C170.812 29.5234 170.332 29.0859 169.98 28.5C169.629 27.9141 169.453 27.1719 169.453 26.2734C169.453 24.9375 169.949 23.9336 170.941 23.2617C171.941 22.5898 173.449 22.2188 175.465 22.1484L177.715 22.0664V21.3867C177.715 20.4883 177.504 19.8477 177.082 19.4648C176.668 19.082 176.082 18.8906 175.324 18.8906C174.676 18.8906 174.047 18.9844 173.438 19.1719C172.828 19.3594 172.234 19.5898 171.656 19.8633L170.766 17.918C171.398 17.582 172.117 17.3086 172.922 17.0977C173.734 16.8867 174.578 16.7812 175.453 16.7812ZM177.703 23.8008L176.027 23.8594C174.652 23.9062 173.688 24.1406 173.133 24.5625C172.578 24.9844 172.301 25.5625 172.301 26.2969C172.301 26.9375 172.492 27.4062 172.875 27.7031C173.258 27.9922 173.762 28.1367 174.387 28.1367C175.34 28.1367 176.129 27.8672 176.754 27.3281C177.387 26.7812 177.703 25.9805 177.703 24.9258V23.8008ZM193.008 26.2969C193.008 27.1484 192.801 27.8672 192.387 28.4531C191.973 29.0391 191.367 29.4844 190.57 29.7891C189.781 30.0859 188.812 30.2344 187.664 30.2344C186.758 30.2344 185.977 30.168 185.32 30.0352C184.672 29.9102 184.059 29.7148 183.48 29.4492V27.0703C184.098 27.3594 184.789 27.6094 185.555 27.8203C186.328 28.0312 187.059 28.1367 187.746 28.1367C188.652 28.1367 189.305 27.9961 189.703 27.7148C190.102 27.4258 190.301 27.043 190.301 26.5664C190.301 26.2852 190.219 26.0352 190.055 25.8164C189.898 25.5898 189.602 25.3594 189.164 25.125C188.734 24.8828 188.102 24.5938 187.266 24.2578C186.445 23.9297 185.754 23.6016 185.191 23.2734C184.629 22.9453 184.203 22.5508 183.914 22.0898C183.625 21.6211 183.48 21.0234 183.48 20.2969C183.48 19.1484 183.934 18.2773 184.84 17.6836C185.754 17.082 186.961 16.7812 188.461 16.7812C189.258 16.7812 190.008 16.8633 190.711 17.0273C191.422 17.1836 192.117 17.4141 192.797 17.7188L191.93 19.793C191.344 19.5352 190.754 19.3242 190.16 19.1602C189.574 18.9883 188.977 18.9023 188.367 18.9023C187.656 18.9023 187.113 19.0117 186.738 19.2305C186.371 19.4492 186.188 19.7617 186.188 20.168C186.188 20.4727 186.277 20.7305 186.457 20.9414C186.637 21.1523 186.945 21.3633 187.383 21.5742C187.828 21.7852 188.445 22.0469 189.234 22.3594C190.008 22.6562 190.676 22.9688 191.238 23.2969C191.809 23.6172 192.246 24.0117 192.551 24.4805C192.855 24.9492 193.008 25.5547 193.008 26.2969ZM194.027 17.0273H197.027L199.688 24.4336C199.805 24.7695 199.91 25.1016 200.004 25.4297C200.105 25.75 200.191 26.0664 200.262 26.3789C200.34 26.6914 200.402 27.0039 200.449 27.3164H200.52C200.598 26.9102 200.707 26.457 200.848 25.957C200.996 25.4492 201.16 24.9414 201.34 24.4336L203.895 17.0273H206.859L201.293 31.7812C200.973 32.625 200.578 33.3438 200.109 33.9375C199.648 34.5391 199.102 34.9922 198.469 35.2969C197.836 35.6094 197.113 35.7656 196.301 35.7656C195.91 35.7656 195.57 35.7422 195.281 35.6953C194.992 35.6562 194.746 35.6133 194.543 35.5664V33.3633C194.707 33.4023 194.914 33.4375 195.164 33.4688C195.414 33.5 195.672 33.5156 195.938 33.5156C196.43 33.5156 196.855 33.418 197.215 33.2227C197.574 33.0273 197.879 32.75 198.129 32.3906C198.379 32.0391 198.586 31.6367 198.75 31.1836L199.207 29.9648L194.027 17.0273Z" fill="#EBE4E1"/>
</g>
<defs>
<clipPath id="clip0_6_249">
<rect width="209" height="42" fill="white"/>
</clipPath>
</defs>
</svg>
