<svg width="90" height="90" viewBox="0 0 90 90" fill="none" xmlns="http://www.w3.org/2000/svg">
<path d="M73.3406 50.286L39.288 16.2334C37.5005 14.4458 34.6038 14.4408 32.8101 16.2222C31.3175 17.7045 31.0751 20.0271 31.5251 22.0819C32.0094 24.2937 31.9713 27.2146 29.593 29.593C27.2146 31.9713 24.2937 32.0094 22.0819 31.5251C20.0271 31.0751 17.7045 31.3175 16.2222 32.8101C14.4408 34.6038 14.4458 37.5005 16.2334 39.288L50.2639 73.3185C52.0192 75.0738 54.8666 75.0689 56.6158 73.3075C58.1142 71.7987 58.2923 69.4264 57.7859 67.3611C57.2458 65.1584 57.2594 62.2356 59.7475 59.7475C62.2329 57.262 65.1633 57.257 67.3756 57.8057C69.4532 58.3211 71.8432 58.1345 73.3516 56.6156C75.0922 54.863 75.0873 52.0326 73.3406 50.286Z" stroke="#EBE4E1" stroke-width="4" stroke-linecap="round"/>
<path d="M43.8431 57.5088L57.6475 43.7045" stroke="#EBE4E1" stroke-width="3" stroke-linecap="round"/>
<path d="M39.9387 53.6044L53.7431 39.8" stroke="#EBE4E1" stroke-width="3" stroke-linecap="round"/>
<rect x="23.25" y="44.8535" width="2.03351" height="3.38918" transform="rotate(-45 23.25 44.8535)" fill="#EBE4E1"/>
<rect x="26.1308" y="41.9727" width="2.03351" height="3.38918" transform="rotate(-45 26.1308 41.9727)" fill="#EBE4E1"/>
<rect x="29.0116" y="39.0919" width="2.03351" height="3.38918" transform="rotate(-45 29.0116 39.0919)" fill="#EBE4E1"/>
<rect x="31.8924" y="36.2111" width="2.03351" height="3.38918" transform="rotate(-45 31.8924 36.2111)" fill="#EBE4E1"/>
<rect x="34.7732" y="33.3303" width="2.03351" height="3.38918" transform="rotate(-45 34.7732 33.3303)" fill="#EBE4E1"/>
<rect x="37.654" y="30.4495" width="2.03351" height="3.38918" transform="rotate(-45 37.654 30.4495)" fill="#EBE4E1"/>
<rect x="40.5348" y="27.5687" width="2.03351" height="3.38918" transform="rotate(-45 40.5348 27.5687)" fill="#EBE4E1"/>
<rect x="43.4156" y="24.6879" width="2.03351" height="3.38918" transform="rotate(-45 43.4156 24.6879)" fill="#EBE4E1"/>
</svg>
