<svg width="360" height="626" viewBox="0 0 360 626" fill="none" xmlns="http://www.w3.org/2000/svg">
<rect x="1" width="360" height="626" fill="#FF701B"/>
<g clip-path="url(#clip0_103_113)">
<path opacity="0.25" d="M-1 1374H137.87C204.47 1314.42 234.38 1244.86 221.87 1177.03C205.76 1089.31 121.94 1007.07 109.37 919.216C96.29 827.162 160.01 735.283 215.15 647.193C269.15 560.837 289.79 474.779 254.39 386.141C236.39 341.074 200.87 299.062 166.37 255.927C74 140.436 -43.87 -13.54 156.41 -122H-1L-1 1374Z" fill="white" fill-opacity="0.25"/>
<path opacity="0.5" d="M-1 1374H46.43C109.76 1357.79 169.58 1339.54 215.15 1314.55C332.81 1250.07 332 1168.3 273.74 1094.02C243.29 1055.19 195.53 1019.11 154.34 982.235C97.34 931.221 16.34 876.605 5.33 819.134C-3.22 773.929 33.59 730.745 100.01 696.212C176.18 656.606 286.01 618.52 319.01 567.02C351.38 516.605 298.94 465.604 246.17 418.505C193.4 371.406 129.17 324.805 117.02 272.745C99.47 198.281 185.66 131.522 233.54 62.1825C259.52 24.5332 252.05 -11.3708 211.04 -46.3896C178.37 -74.3524 130.25 -106.23 63.32 -122H-1L-1 1374Z" fill="white" fill-opacity="0.25"/>
<path d="M-1 1374H15.89C176 1187.09 212.96 982.434 126.71 780.799C103.79 727.192 66.35 675.792 47.33 621.711C21.44 548.158 84.05 481.486 153.53 415.313C230.66 341.847 284.72 269.453 269 188.171C248 80.2966 131.87 -26.8295 14.57 -122H-1L-1 1374Z" fill="white" fill-opacity="0.25"/>
</g>
<defs>
<clipPath id="clip0_103_113">
<rect width="1496" height="360" fill="white" transform="matrix(0 -1 1 0 -1 1374)"/>
</clipPath>
</defs>
</svg>
